<?xml version="1.0" encoding="UTF-8" standalone="no"?>
<svg
   xmlns:dc="http://purl.org/dc/elements/1.1/"
   xmlns:cc="http://creativecommons.org/ns#"
   xmlns:rdf="http://www.w3.org/1999/02/22-rdf-syntax-ns#"
   xmlns:svg="http://www.w3.org/2000/svg"
   xmlns="http://www.w3.org/2000/svg"
   width="210mm"
   height="297mm"
   viewBox="0 0 210 297"
   version="1.1"
   id="svg8">
  <defs
     id="defs2" />
  <metadata
     id="metadata5">
    <rdf:RDF>
      <cc:Work
         rdf:about="">
        <dc:format>image/svg+xml</dc:format>
        <dc:type
           rdf:resource="http://purl.org/dc/dcmitype/StillImage" />
        <dc:title></dc:title>
      </cc:Work>
    </rdf:RDF>
  </metadata>
  <g
     id="layer1">
    <g
       id="g26"
       transform="translate(7.3499115,-2.1381563)">
      <path
         style="fill:#e6e6e6;fill-opacity:1;stroke-width:0.264583"
         d="m 88.259053,120.60406 c -0.299437,-0.457 -0.370921,-0.90989 -0.240133,-1.52135 0.419135,-1.95955 1.416626,-2.85503 3.180284,-2.85503 0.737203,0 0.913592,0.10217 0.913592,0.52917 0,0.61605 -0.665794,0.71508 -0.88943,0.13229 -0.581056,-1.51421 -2.605713,1.73114 -2.168003,3.47512 0.192041,0.76515 0.699535,0.80186 1.337642,0.0968 0.601122,-0.66424 0.926041,-0.67417 0.926041,-0.0283 0,1.04959 -2.396614,1.1838 -3.059993,0.17135 z m -3.55459,-6.36075 v -6.21771 l 1.124479,0.0396 c 0.789539,0.0278 0.907753,0.0725 0.396875,0.14987 l -0.727604,0.11022 v 5.91798 5.91797 l 0.727604,0.11023 c 0.510878,0.0774 0.392664,0.12203 -0.396875,0.14986 l -1.124479,0.0397 z m 9.458854,6.03098 0.595313,-0.11466 v -5.91632 -5.91632 l -0.595313,-0.11466 c -0.327422,-0.0631 -0.0893,-0.13088 0.529167,-0.1507 l 1.124479,-0.036 v 6.21771 6.21771 l -1.124479,-0.036 c -0.618464,-0.0198 -0.856589,-0.0876 -0.529167,-0.15069 z m -7.133655,-8.34609 c 0.402488,-0.48701 1.172857,-3.65042 1.02586,-4.21254 -0.100237,-0.38331 0.02681,-0.48381 0.611602,-0.48381 0.828173,0 1.050953,0.46984 1.066365,2.24896 l 0.0092,1.05833 1.059195,-1.65364 c 0.808169,-1.26174 1.207104,-1.65365 1.683289,-1.65365 0.619132,0 0.620987,0.009 0.233356,1.12448 -0.214905,0.61846 -0.409338,1.74859 -0.432073,2.51139 l -0.04134,1.38692 -0.892293,0.002 c -0.675353,0.002 -0.829507,-0.0783 -0.63405,-0.32858 0.25659,-0.32862 0.899399,-2.63337 0.77043,-2.76234 -0.03709,-0.0371 -0.413208,0.52462 -0.835822,1.24824 -1.089964,1.86627 -1.682668,1.69887 -1.741716,-0.49192 l -0.02616,-0.97054 -0.378714,1.19063 c -0.208292,0.65484 -0.32673,1.39898 -0.263194,1.65364 0.09093,0.36449 -0.05502,0.46302 -0.685857,0.46302 -0.610487,0 -0.73627,-0.0788 -0.528051,-0.33073 z"
         id="path32" />
      <path
         style="fill:#8c8c8c;fill-opacity:1;stroke-width:0.264583"
         d="m 88.607067,120.96899 c -0.947955,-0.55213 -0.351048,-3.44002 0.890818,-4.30985 1.09443,-0.76657 2.988641,-0.45647 2.457848,0.40237 -0.131614,0.21296 -0.28959,0.16614 -0.524804,-0.15553 -0.865615,-1.1838 -2.57051,0.73999 -2.439149,2.75231 0.06506,0.99672 0.174671,1.21333 0.648073,1.2808 0.35515,0.0506 0.726588,-0.14269 0.986102,-0.5132 0.503759,-0.71922 0.855471,-0.49808 0.440636,0.27705 -0.324484,0.6063 -1.632436,0.74778 -2.459524,0.26605 z m -3.902604,-6.72568 v -6.21771 l 0.992187,0.036 c 0.614198,0.0223 0.765394,0.0797 0.396875,0.1507 l -0.595312,0.11466 v 5.91632 5.91632 l 0.595312,0.11466 c 0.368519,0.071 0.217323,0.12839 -0.396875,0.15069 l -0.992187,0.036 z m 9.723438,6.03098 0.595312,-0.11466 v -5.91632 -5.91632 l -0.595312,-0.11466 c -0.430505,-0.0829 -0.357256,-0.12464 0.264583,-0.1507 l 0.859896,-0.036 v 6.21771 6.21771 l -0.859896,-0.036 c -0.621839,-0.0261 -0.695088,-0.0678 -0.264583,-0.15069 z m -7.191452,-8.30978 c 0.100082,-0.16194 0.39915,-1.13877 0.664598,-2.17074 0.349227,-1.35767 0.403991,-1.97106 0.198127,-2.21911 -0.22207,-0.26758 -0.112359,-0.34281 0.499927,-0.34281 0.76614,0 0.790033,0.0408 1.024585,1.74815 l 0.240152,1.74815 1.017207,-1.74815 c 0.851949,-1.46414 1.131352,-1.74749 1.719792,-1.7441 0.389854,0.002 0.572142,0.0906 0.40953,0.19844 -0.363988,0.24144 -1.258053,4.19079 -1.031651,4.55712 0.09883,0.15991 -0.186756,0.26584 -0.710201,0.26342 -0.481531,-0.002 -0.738141,-0.0915 -0.570246,-0.19844 0.286383,-0.18236 1.223674,-3.25155 1.046951,-3.42828 -0.04478,-0.0448 -0.523475,0.63476 -1.06376,1.51009 -0.540286,0.87534 -1.084629,1.59152 -1.20965,1.59152 -0.125022,0 -0.315778,-0.80368 -0.423903,-1.78594 l -0.196591,-1.78594 -0.358848,1.32292 c -0.197366,0.7276 -0.317592,1.65034 -0.267167,2.05052 0.07762,0.61605 -0.0051,0.7276 -0.539569,0.7276 -0.396115,0 -0.563469,-0.10967 -0.449283,-0.29442 z"
         id="path30" />
      <path
         style="fill:#333333;fill-opacity:1;stroke-width:0.264583"
         d="m 88.523636,120.60406 c -0.299436,-0.457 -0.370921,-0.90989 -0.240132,-1.52135 0.395093,-1.84715 1.424385,-2.85503 2.9157,-2.85503 0.499041,0 0.64715,0.13756 0.640963,0.59532 -0.0072,0.53165 -0.03688,0.5458 -0.27773,0.13229 -0.651857,-1.11917 -2.131789,-0.17667 -2.63045,1.67522 -0.54847,2.03686 0.348739,3.08912 1.638621,1.92179 0.42457,-0.38423 0.483855,-0.3877 0.483855,-0.0283 0,0.93561 -1.930243,0.99668 -2.530827,0.0801 z m -3.55459,-6.36075 v -6.21771 l 0.859896,0.0396 c 0.800346,0.0369 0.809508,0.0473 0.132292,0.14987 l -0.727605,0.11022 v 5.91798 5.91797 l 0.727605,0.11023 c 0.677216,0.10259 0.668054,0.11297 -0.132292,0.14986 l -0.859896,0.0397 z m 9.458855,6.03098 0.595312,-0.11466 v -5.91632 -5.91632 l -0.595312,-0.11466 c -0.430505,-0.0829 -0.357256,-0.12464 0.264583,-0.1507 l 0.859896,-0.036 v 6.21771 6.21771 l -0.859896,-0.036 c -0.621839,-0.0261 -0.695088,-0.0678 -0.264583,-0.15069 z m -7.130969,-8.34793 c 0.151807,-0.18292 0.462578,-0.98659 0.690601,-1.78594 0.2956,-1.03624 0.363384,-1.14961 0.23618,-0.39503 -0.09813,0.58208 -0.185958,1.38576 -0.195184,1.78594 -0.01219,0.52872 -0.152192,0.7276 -0.512192,0.7276 -0.367802,0 -0.424319,-0.0857 -0.219405,-0.33257 z m 3.686947,0.002 c 0.142336,-0.1819 0.400423,-0.92604 0.573527,-1.65365 0.173104,-0.7276 0.386056,-1.5601 0.473228,-1.85 0.14535,-0.48339 0.117192,-0.49436 -0.339589,-0.1323 -0.47952,0.38009 -0.482229,0.37015 -0.0727,-0.26666 0.23396,-0.3638 0.607822,-0.6977 0.830803,-0.742 0.362876,-0.0721 0.363897,0.039 0.0097,1.05833 -0.217634,0.62638 -0.414299,1.76299 -0.437034,2.52579 -0.03788,1.27082 -0.09388,1.3871 -0.669045,1.38906 -0.463948,0.002 -0.560194,-0.0841 -0.368916,-0.32858 z m -1.620174,-0.75571 c -0.07284,-0.34835 -0.208777,-1.21901 -0.302085,-1.93482 -0.102451,-0.78594 -0.251317,-1.16931 -0.375825,-0.96786 -0.13946,0.22566 -0.248597,0.11169 -0.337272,-0.35218 -0.100559,-0.52604 -0.02357,-0.68579 0.330521,-0.68579 0.518785,0 0.778948,0.71888 0.784306,2.1672 0.0049,1.33337 0.376588,1.45527 1.060927,0.34799 0.31534,-0.51023 0.632876,-0.92769 0.705636,-0.92769 0.122742,0 -0.620258,1.32003 -1.398968,2.48544 -0.319234,0.47776 -0.340963,0.47161 -0.46724,-0.13229 z"
         id="path28" />
    </g>
  </g>
</svg>
